<?xml version="1.0" encoding="UTF-8" standalone="no"?>
<svg
   xmlns:dc="http://purl.org/dc/elements/1.1/"
   xmlns:cc="http://creativecommons.org/ns#"
   xmlns:rdf="http://www.w3.org/1999/02/22-rdf-syntax-ns#"
   xmlns:svg="http://www.w3.org/2000/svg"
   xmlns="http://www.w3.org/2000/svg"
   xmlns:sodipodi="http://sodipodi.sourceforge.net/DTD/sodipodi-0.dtd"
   xmlns:inkscape="http://www.inkscape.org/namespaces/inkscape"
   sodipodi:docname="button-square.svg"
   inkscape:version="1.0 (4035a4f, 2020-05-01)"
   id="svg8"
   version="1.1"
   viewBox="0 0 79.374998 26.458334"
   height="100"
   width="300">
  <defs
     id="defs2">
    <style
       type="text/css"
       id="style833">
   
    .fil0 {fill:black;fill-rule:nonzero}
   
  </style>
  </defs>
  <sodipodi:namedview
     inkscape:window-maximized="0"
     inkscape:window-y="0"
     inkscape:window-x="0"
     inkscape:window-height="872"
     inkscape:window-width="1252"
     units="px"
     showgrid="false"
     inkscape:document-rotation="0"
     inkscape:current-layer="g856"
     inkscape:document-units="px"
     inkscape:cy="128.73681"
     inkscape:cx="147.71109"
     inkscape:zoom="1.3723584"
     inkscape:pageshadow="2"
     inkscape:pageopacity="0.0"
     borderopacity="1.0"
     bordercolor="#666666"
     pagecolor="#ffffff"
     id="base" />
  <metadata
     id="metadata5">
    <rdf:RDF>
      <cc:Work
         rdf:about="">
        <dc:format>image/svg+xml</dc:format>
        <dc:type
           rdf:resource="http://purl.org/dc/dcmitype/StillImage" />
        <dc:title></dc:title>
      </cc:Work>
    </rdf:RDF>
  </metadata>
  <g
     id="layer1"
     inkscape:groupmode="layer"
     inkscape:label="Layer 1">
    <g
       transform="matrix(0.26458333,0,0,0.26458333,56.583036,67.443521)"
       id="g856"
       style="clip-rule:evenodd;fill-rule:evenodd;image-rendering:optimizeQuality;shape-rendering:geometricPrecision;text-rendering:geometricPrecision">
      <g
         transform="translate(-0.99999912,-0.99999907)"
         id="g852">
        <g
           id="g846">
          <rect
             y="-253.90465"
             x="-212.85715"
             height="100"
             width="300"
             id="rect858"
             style="fill:#351800;fill-opacity:1;stroke:none;stroke-width:1.36241" />
          <g
             transform="matrix(-0.00106668,0.96808162,-1.0376821,-9.9514003e-4,110.68853,-390.38769)"
             id="g839">
            <path
               style="fill:#6e4821;fill-opacity:1"
               class="fil0"
               d="m 228.30324,22.545391 c 1,6 -1,11 -2,16 -1,4 -2,9 -1,14 2,6 -8,9 -9,2 -2,-7 -1,-13 0,-18 2,-5 3,-10 1,-14 h -22 c -1,17 1,29 4,42 3,22 7,44.999999 -4,85.999999 -1,7 -11,4 -9,-2 10,-40 6,-60.999999 3,-81.999999 -3,-13 -5,-27 -4,-44 h -44 V 311.54539 h 15 c -2,-8 0,-16 1,-22 2,-7 3,-14 0,-20 -2,-6 7,-10 9,-4 5,9 3,17 1,26 -1,6 -3,13 -1,20 h 41 c -9,-50 -5,-75 -2,-100 4,-26 8,-53 0,-108 -1,-6.999999 9,-7.999999 10,-2 8,57 4,85 0,111 -3,25 -7,50 2,99 h 27 V 22.545391 Z m 0,108.999999 c 2,-6 11,-3 9,3 -4,10 -2,20 -1,30 2,11 5,22 1,37 -1,6 -11,4 -10,-2 3,-13 1,-23 0,-33 -3,-12 -5,-23 1,-35 z m -49,61 c -3,-6 6,-10 9,-4 4,10 3,16 1,25 -2,8 -5,20 -1,42 1,6 -9,8 -10,1 -4,-24 -1,-36 1,-46 2,-6 3,-11 0,-18 z m -20,-96.999999 c -1,-6 8,-9 10,-2 4,17.999999 3,31.999999 1,47.999999 -1,13 -3,29 -1,50 1,7 -9,8 -10,1 -2,-22 0,-38 1,-52 2,-15 3,-28 -1,-44.999999 z"
               id="path837" />
          </g>
        </g>
      </g>
    </g>
  </g>
</svg>
