<?xml version="1.0" encoding="UTF-8" standalone="no"?>
<svg
   xmlns:dc="http://purl.org/dc/elements/1.1/"
   xmlns:cc="http://creativecommons.org/ns#"
   xmlns:rdf="http://www.w3.org/1999/02/22-rdf-syntax-ns#"
   xmlns:svg="http://www.w3.org/2000/svg"
   xmlns="http://www.w3.org/2000/svg"
   xmlns:sodipodi="http://sodipodi.sourceforge.net/DTD/sodipodi-0.dtd"
   xmlns:inkscape="http://www.inkscape.org/namespaces/inkscape"
   width="302"
   height="102"
   viewBox="0 0 79.904165 26.987501"
   version="1.1"
   id="svg8"
   inkscape:version="1.0 (4035a4f, 2020-05-01)"
   sodipodi:docname="button-arrow.svg">
  <defs
     id="defs2">
    <style
       id="style833"
       type="text/css">
   
    .fil0 {fill:black;fill-rule:nonzero}
   
  </style>
  </defs>
  <sodipodi:namedview
     showguides="false"
     id="base"
     pagecolor="#ffffff"
     bordercolor="#666666"
     borderopacity="1.0"
     inkscape:pageopacity="0.0"
     inkscape:pageshadow="2"
     inkscape:zoom="2.1615268"
     inkscape:cx="147.0193"
     inkscape:cy="99.197357"
     inkscape:document-units="px"
     inkscape:current-layer="g856"
     inkscape:document-rotation="0"
     showgrid="false"
     units="px"
     inkscape:window-width="1252"
     inkscape:window-height="872"
     inkscape:window-x="0"
     inkscape:window-y="0"
     inkscape:window-maximized="0" />
  <metadata
     id="metadata5">
    <rdf:RDF>
      <cc:Work
         rdf:about="">
        <dc:format>image/svg+xml</dc:format>
        <dc:type
           rdf:resource="http://purl.org/dc/dcmitype/StillImage" />
        <dc:title />
      </cc:Work>
    </rdf:RDF>
  </metadata>
  <g
     inkscape:label="Layer 1"
     inkscape:groupmode="layer"
     id="layer1">
    <g
       style="clip-rule:evenodd;fill-rule:evenodd;image-rendering:optimizeQuality;shape-rendering:geometricPrecision;text-rendering:geometricPrecision"
       id="g856"
       transform="matrix(0.26458333,0,0,0.26458333,56.583036,67.443521)">
      <g
         id="g855">
        <g
           id="g849">
          <path
             id="path844"
             d="m -212.74727,-253.90465 249.24363,0.23902 50.59955,42.64416 -0.01066,9.68082 -49.57117,47.38851 -250.37122,-0.24011 z"
             style="fill:#351800;stroke:none;stroke-width:1px;stroke-linecap:butt;stroke-linejoin:miter;stroke-opacity:1;fill-opacity:1" />
          <g
             id="g839"
             transform="matrix(-0.00106668,0.96808162,-1.0376821,-9.9514003e-4,110.68853,-390.38769)">
            <path
               sodipodi:nodetypes="cccccccccccccccccccccccccccccccccccccccccccc"
               id="path837"
               d="m 195.30324,22.545391 c 0,0 1,29 4,42 3,22 7,44.999999 -4,85.999999 -1,7 -11,4 -9,-2 10,-40 6,-60.999999 3,-81.999999 -3,-13 -5,-27 -4,-44 -18.73406,20.549087 -28.73194,32.985167 -44,48.807328 l 0,240.192671 h 15 c -2,-8 0,-16 1,-22 2,-7 3,-14 0,-20 -2,-6 7,-10 9,-4 5,9 3,17 1,26 -1,6 -3,13 -1,20 h 41 c -9,-50 -5,-75 -2,-100 4,-26 8,-53 0,-108 -1,-6.999999 9,-7.999999 10,-2 8,57 4,85 0,111 -3,25 -7,50 2,99 l 27,0 V 70.266077 c -16.74656,-15.544333 -32.93273,-31.572274 -49,-47.720686 z m 33,108.999999 c 2,-6 11,-3 9,3 -4,10 -2,20 -1,30 2,11 5,22 1,37 -1,6 -11,4 -10,-2 3,-13 1,-23 0,-33 -3,-12 -5,-23 1,-35 z m -49,61 c -3,-6 6,-10 9,-4 4,10 3,16 1,25 -2,8 -5,20 -1,42 1,6 -9,8 -10,1 -4,-24 -1,-36 1,-46 2,-6 3,-11 0,-18 z m -20,-96.999999 c -1,-6 8,-9 10,-2 4,17.999999 3,31.999999 1,47.999999 -1,13 -3,29 -1,50 1,7 -9,8 -10,1 -2,-22 0,-38 1,-52 2,-15 3,-28 -1,-44.999999 z"
               class="fil0"
               style="fill:#6e4821;fill-opacity:1;stroke:none" />
          </g>
        </g>
      </g>
    </g>
  </g>
</svg>
