<?xml version="1.0" encoding="UTF-8" standalone="no"?>
<svg
   xmlns:dc="http://purl.org/dc/elements/1.1/"
   xmlns:cc="http://creativecommons.org/ns#"
   xmlns:rdf="http://www.w3.org/1999/02/22-rdf-syntax-ns#"
   xmlns:svg="http://www.w3.org/2000/svg"
   xmlns="http://www.w3.org/2000/svg"
   xmlns:xlink="http://www.w3.org/1999/xlink"
   xmlns:sodipodi="http://sodipodi.sourceforge.net/DTD/sodipodi-0.dtd"
   xmlns:inkscape="http://www.inkscape.org/namespaces/inkscape"
   width="1920"
   height="1080"
   version="1.1"
   viewBox="0 0 508 285.8"
   id="svg611"
   sodipodi:docname="background.svg"
   inkscape:version="1.0 (4035a4f, 2020-05-01)"
   inkscape:export-filename="/Users/jacobdavidgrisham/Downloads/bunny-and-bear.png"
   inkscape:export-xdpi="300"
   inkscape:export-ydpi="300">
  <sodipodi:namedview
     inkscape:pagecheckerboard="true"
     inkscape:document-rotation="0"
     pagecolor="#ffffff"
     bordercolor="#666666"
     borderopacity="1"
     objecttolerance="10"
     gridtolerance="10"
     guidetolerance="10"
     inkscape:pageopacity="0"
     inkscape:pageshadow="2"
     inkscape:window-width="1440"
     inkscape:window-height="855"
     id="namedview613"
     showgrid="false"
     inkscape:zoom="0.91506385"
     inkscape:cx="714.70397"
     inkscape:cy="756.72957"
     inkscape:window-x="0"
     inkscape:window-y="0"
     inkscape:window-maximized="0"
     inkscape:current-layer="layer10"
     inkscape:snap-global="false" />
  <defs
     id="defs47">
    <linearGradient
       inkscape:collect="always"
       id="linearGradient5117">
      <stop
         style="stop-color:#1a1a1a;stop-opacity:1;"
         offset="0"
         id="stop5113" />
      <stop
         style="stop-color:#1a1a1a;stop-opacity:0;"
         offset="1"
         id="stop5115" />
    </linearGradient>
    <linearGradient
       id="linearGradient5048"
       inkscape:collect="always">
      <stop
         id="stop5044"
         offset="0"
         style="stop-color:#4d4d4d;stop-opacity:1;" />
      <stop
         id="stop5046"
         offset="1"
         style="stop-color:#333333;stop-opacity:1" />
    </linearGradient>
    <linearGradient
       inkscape:collect="always"
       id="linearGradient5040">
      <stop
         style="stop-color:#000000;stop-opacity:1;"
         offset="0"
         id="stop5036" />
      <stop
         style="stop-color:#000000;stop-opacity:0;"
         offset="1"
         id="stop5038" />
    </linearGradient>
    <linearGradient
       inkscape:collect="always"
       id="linearGradient4969">
      <stop
         style="stop-color:#4d4d4d;stop-opacity:1;"
         offset="0"
         id="stop4965" />
      <stop
         style="stop-color:#4d4d4d;stop-opacity:0;"
         offset="1"
         id="stop4967" />
    </linearGradient>
    <linearGradient
       inkscape:collect="always"
       id="linearGradient2099">
      <stop
         style="stop-color:#6e6e6e;stop-opacity:1;"
         offset="0"
         id="stop2095" />
      <stop
         style="stop-color:#6e6e6e;stop-opacity:0;"
         offset="1"
         id="stop2097" />
    </linearGradient>
    <linearGradient
       id="linearGradient1147">
      <stop
         stop-color="#f3f5f4"
         offset="0"
         id="stop10" />
      <stop
         stop-color="#f3f5f4"
         stop-opacity="0"
         offset="1"
         id="stop12" />
    </linearGradient>
    <radialGradient
       id="radialGradient1149"
       cx="1121"
       cy="299.3"
       r="610.5"
       gradientTransform="matrix(0.34331776,0,0,0.16510442,-9.2273155,102.627)"
       gradientUnits="userSpaceOnUse"
       xlink:href="#linearGradient1147" />
    <linearGradient
       id="linearGradient1651"
       x1="208.3"
       x2="396"
       y1="238.6"
       y2="238.6"
       gradientTransform="translate(-1.8e-6)"
       gradientUnits="userSpaceOnUse">
      <stop
         stop-color="#75935a"
         offset="0"
         id="stop16" />
      <stop
         stop-color="#75935a"
         stop-opacity="0"
         offset="1"
         id="stop18" />
    </linearGradient>
    <linearGradient
       id="linearGradient1665"
       x1="66.68"
       x2="233.3"
       y1="279.9"
       y2="279.9"
       gradientUnits="userSpaceOnUse">
      <stop
         stop-color="#78935a"
         offset="0"
         id="stop21" />
      <stop
         stop-color="#78935a"
         stop-opacity="0"
         offset="1"
         id="stop23" />
    </linearGradient>
    <linearGradient
       id="linearGradient1673"
       x1="303.7"
       x2="520.1"
       y1="263.5"
       y2="263.5"
       gradientUnits="userSpaceOnUse">
      <stop
         stop-color="#78935a"
         offset="0"
         id="stop26" />
      <stop
         stop-color="#78935a"
         stop-opacity="0"
         offset="1"
         id="stop28" />
    </linearGradient>
    <radialGradient
       id="radialGradient1149-2"
       cx="1121"
       cy="299.3"
       r="610.5"
       gradientTransform="matrix(0.2646,0,0,0.1202,-134.6392,167.6834)"
       gradientUnits="userSpaceOnUse"
       xlink:href="#linearGradient1147" />
    <linearGradient
       id="linearGradient4157"
       x1="379.2"
       x2="457.4"
       y1="209.1"
       y2="209.1"
       gradientUnits="userSpaceOnUse">
      <stop
         stop-color="#827f79"
         offset="0"
         id="stop32" />
      <stop
         stop-color="#827f79"
         stop-opacity="0"
         offset="1"
         id="stop34" />
    </linearGradient>
    <linearGradient
       id="linearGradient4198"
       x1="435.6"
       x2="533"
       y1="148.1"
       y2="148.1"
       gradientUnits="userSpaceOnUse">
      <stop
         stop-color="#625a56"
         offset="0"
         id="stop37" />
      <stop
         stop-color="#625a56"
         stop-opacity="0"
         offset="1"
         id="stop39" />
    </linearGradient>
    <linearGradient
       id="linearGradient4216"
       x1="465.9"
       x2="524.3"
       y1="87.15"
       y2="87.15"
       gradientUnits="userSpaceOnUse">
      <stop
         stop-color="#5a5550"
         offset="0"
         id="stop42" />
      <stop
         stop-color="#5a5550"
         stop-opacity="0"
         offset="1"
         id="stop44" />
    </linearGradient>
    <linearGradient
       inkscape:collect="always"
       xlink:href="#linearGradient2099"
       id="linearGradient2101"
       x1="435.6234"
       y1="148.1622"
       x2="533.0134"
       y2="148.1622"
       gradientUnits="userSpaceOnUse" />
    <radialGradient
       xlink:href="#linearGradient1147"
       gradientUnits="userSpaceOnUse"
       gradientTransform="matrix(0.31529999,0,0,0.1297,258.50724,87.214265)"
       r="610.5"
       cy="299.29999"
       cx="1121"
       id="radialGradient1149-3" />
    <radialGradient
       id="radialGradient1149-3-7"
       cx="1121"
       cy="299.29999"
       r="610.5"
       gradientTransform="matrix(0.31529999,0,0,0.1297,254.19406,381.63813)"
       gradientUnits="userSpaceOnUse"
       xlink:href="#linearGradient1147" />
    <radialGradient
       inkscape:collect="always"
       xlink:href="#linearGradient4969"
       id="radialGradient4971-2-6"
       cx="150.69437"
       cy="269.06229"
       fx="150.69437"
       fy="269.06229"
       r="26.50914"
       gradientTransform="matrix(3.4487764,0.0174087,-0.00147954,0.54843562,-364.32239,155.72983)"
       gradientUnits="userSpaceOnUse" />
    <radialGradient
       inkscape:collect="always"
       xlink:href="#linearGradient5040"
       id="radialGradient5042"
       cx="94.484077"
       cy="324.27988"
       fx="94.484077"
       fy="324.27988"
       r="26.851351"
       gradientTransform="matrix(1.0658071,-0.11352432,0.05665845,0.53192993,-46.0181,145.20417)"
       gradientUnits="userSpaceOnUse" />
    <radialGradient
       inkscape:collect="always"
       xlink:href="#linearGradient5048"
       id="radialGradient5052"
       gradientUnits="userSpaceOnUse"
       gradientTransform="matrix(-0.06752618,0.23896068,-0.20195617,-0.05706935,209.07548,228.01118)"
       cx="150.56343"
       cy="241.2453"
       fx="150.56343"
       fy="241.2453"
       r="26.50914" />
    <radialGradient
       gradientUnits="userSpaceOnUse"
       gradientTransform="matrix(0.67539527,0.00335378,-3.3633288e-4,0.06773177,200.64803,289.42948)"
       r="49.367359"
       fy="340.99457"
       fx="149.8044"
       cy="340.99457"
       cx="149.8044"
       id="radialGradient5119-2-7-0"
       xlink:href="#linearGradient5117"
       inkscape:collect="always" />
    <radialGradient
       xlink:href="#linearGradient1147"
       gradientUnits="userSpaceOnUse"
       gradientTransform="matrix(-0.31186489,0,0,0.15142945,460.65202,-34.104279)"
       r="610.5"
       cy="299.29999"
       cx="1121"
       id="radialGradient1149-2-0" />
    <radialGradient
       xlink:href="#linearGradient1147"
       gradientUnits="userSpaceOnUse"
       gradientTransform="matrix(0.2646,0,0,0.1202,-80.693167,59.863576)"
       r="610.5"
       cy="299.29999"
       cx="1121"
       id="radialGradient1149-2-4" />
    <radialGradient
       id="radialGradient1149-2-4-1"
       cx="1121"
       cy="299.29999"
       r="610.5"
       gradientTransform="matrix(0.2646,0,0,0.1202,92.211986,34.061796)"
       gradientUnits="userSpaceOnUse"
       xlink:href="#linearGradient1147" />
  </defs>
  <metadata
     id="metadata49">
    <rdf:RDF>
      <cc:Work
         rdf:about="">
        <dc:format>image/svg+xml</dc:format>
        <dc:type
           rdf:resource="http://purl.org/dc/dcmitype/StillImage" />
        <dc:title />
      </cc:Work>
    </rdf:RDF>
  </metadata>
  <g
     style="display:inline"
     inkscape:label="Background"
     id="layer14"
     inkscape:groupmode="layer">
    <g
       inkscape:groupmode="layer"
       id="layer5"
       inkscape:label="Background Mountain Furthest"
       style="display:inline">
      <g
         id="g1426">
        <path
           d="m 431.6,170.2 c 0,0 7.937,-49.11 14.88,-55.06 6.945,-5.953 22.32,-22.82 31.75,-33.24 9.425,-10.42 11.41,-27.78 24.8,-35.22 13.39,-7.441 30.26,-4.961 30.26,-4.961 l 4.465,123 z"
           fill="#625a56"
           id="path51" />
        <path
           d="m 465.9,128.8 10.64,-27.01 c 0,0 3.546,-19.64 4.637,-22.1 1.091,-2.455 12.82,-34.64 27.28,-34.1 14.46,0.5456 13.09,0.2728 13.09,0.2728 l 2.728,78.56 z"
           fill="url(#linearGradient4216)"
           id="path53"
           style="fill:url(#linearGradient4216)" />
      </g>
    </g>
    <g
       inkscape:groupmode="layer"
       id="layer1"
       inkscape:label="Background Mountain Far"
       style="display:inline;mix-blend-mode:normal">
      <g
         id="g1925">
        <path
           d="m 303.1,244.6 c 0,0 41.17,-49.61 45.64,-51.1 4.465,-1.488 9.922,-3.473 10.91,-9.922 0.988,-6.449 11.41,-24.31 16.87,-19.35 5.457,4.961 20.84,9.425 31.25,7.937 10.41,-1.488 34.23,-12.9 34.23,-12.9 0,0 11.41,-21.83 10.91,-23.81 -0.4961,-1.984 15.38,-8.929 21.83,-15.87 6.45,-6.941 4.961,-11.91 19.84,-20.84 14.88,-8.929 21.33,-17.86 21.33,-17.86 l 20.34,-0.9922 1.488,185.5 -236.6,-10.42 z"
           fill="#827f79"
           id="path55" />
        <path
           d="m 435.9,189.9 c 17.19,-19.1 26.46,-30.83 27.01,-31.1 0.5456,-0.2728 4.365,-1.364 4.365,-1.364 l 0.8184,-1.91 2.182,-6.001 v -6.001 l -1.091,-1.637 -2.455,-1.364 -2.455,-0.5456 1.637,-2.182 12.55,-5.456 c 0,0 11.46,-6.547 13.09,-9.275 1.637,-2.728 21.28,-23.46 24.82,-23.46 3.546,0 14.46,0.5456 14.46,0.5456 l 2.182,96.57 h -97.39 z"
           fill="url(#linearGradient4198)"
           id="path57"
           style="fill:url(#linearGradient2101);fill-opacity:1" />
      </g>
    </g>
    <g
       inkscape:groupmode="layer"
       id="layer2"
       inkscape:label="Background Mountain Near"
       style="display:inline">
      <g
         fill="#1a351a"
         id="g111">
        <path
           d="m 451.7,183.2 1.097,2.431 -0.4744,-0.1816 0.9445,1.704 -0.4702,-0.1857 2.069,4.643 -0.909,-0.1857 1.63,2.786 -3.072,0.8491 h -1.63 l -2.288,-0.9022 1.222,-1.964 -0.6896,0.2123 1.316,-4.192 -0.4075,0.2123 0.8776,-2.892 -0.3448,0.1857 z"
           id="path61"
           style="fill:#d7cdc5;fill-opacity:1" />
        <path
           d="m 438.9,179 0.9899,2.221 -0.428,-0.1659 0.8522,1.557 -0.4242,-0.1697 1.867,4.242 -0.8201,-0.1697 1.471,2.545 -2.772,0.7758 h -1.471 l -2.064,-0.8242 1.103,-1.794 -0.6222,0.1939 1.188,-3.83 -0.3676,0.1939 0.7919,-2.642 -0.3111,0.1697 z"
           id="path63"
           style="fill:#d7cdc5;fill-opacity:1" />
        <path
           d="m 430.2,174.5 0.9899,2.221 -0.428,-0.1659 0.8522,1.557 -0.4242,-0.1697 1.867,4.242 -0.8201,-0.1697 1.471,2.545 -2.772,0.7758 h -1.471 l -2.064,-0.8242 1.103,-1.794 -0.6222,0.1939 1.188,-3.83 -0.3676,0.1939 0.7919,-2.642 -0.3111,0.1697 z"
           id="path65"
           style="fill:#d7cdc5;fill-opacity:1" />
        <path
           d="m 420.8,172.8 0.9899,2.221 -0.428,-0.1659 0.8522,1.557 -0.4242,-0.1697 1.867,4.242 -0.8201,-0.1697 1.471,2.545 -2.772,0.7758 h -1.471 l -2.064,-0.8242 1.103,-1.794 -0.6222,0.1939 1.188,-3.83 -0.3676,0.1939 0.7919,-2.642 -0.3111,0.1697 z"
           id="path67"
           style="fill:#d7cdc5;fill-opacity:1" />
        <path
           d="m 434.5,180 0.9899,2.221 -0.428,-0.1659 0.8522,1.557 -0.4242,-0.1697 1.867,4.242 -0.8201,-0.1697 1.471,2.545 -2.772,0.7758 h -1.471 l -2.064,-0.8242 1.103,-1.794 -0.6222,0.1939 1.188,-3.83 -0.3676,0.1939 0.7919,-2.642 -0.3111,0.1697 z"
           id="path69"
           style="fill:#d7cdc5;fill-opacity:1" />
        <path
           d="m 417.8,174.7 0.9899,2.221 -0.428,-0.1659 0.8522,1.557 -0.4242,-0.1697 1.867,4.242 -0.8201,-0.1697 1.471,2.545 -2.772,0.7758 h -1.471 l -2.064,-0.8242 1.103,-1.794 -0.6222,0.1939 1.188,-3.83 -0.3676,0.1939 0.7919,-2.642 -0.3111,0.1697 z"
           id="path71"
           style="fill:#d7cdc5;fill-opacity:1" />
        <path
           d="m 423.9,176.1 0.9899,2.221 -0.428,-0.1659 0.8522,1.557 -0.4242,-0.1697 1.867,4.242 -0.8201,-0.1697 1.471,2.545 -2.772,0.7758 h -1.471 l -2.064,-0.8242 1.103,-1.794 -0.6222,0.1939 1.188,-3.83 -0.3676,0.1939 0.7919,-2.642 -0.3111,0.1697 z"
           id="path73"
           style="fill:#d7cdc5;fill-opacity:1" />
        <path
           d="m 412.7,175.6 0.9899,2.221 -0.428,-0.1659 0.8522,1.557 -0.4242,-0.1697 1.867,4.242 -0.8201,-0.1697 1.471,2.545 -2.772,0.7758 h -1.471 l -2.064,-0.8242 1.103,-1.794 -0.6222,0.1939 1.188,-3.83 -0.3676,0.1939 0.7919,-2.642 -0.3111,0.1697 z"
           id="path75"
           style="fill:#d7cdc5;fill-opacity:1" />
        <path
           d="m 427.2,175 0.9899,2.221 -0.428,-0.1659 0.8522,1.557 -0.4242,-0.1697 1.867,4.242 -0.8201,-0.1697 1.471,2.545 -2.772,0.7758 h -1.471 l -2.064,-0.8242 1.103,-1.794 -0.6222,0.1939 1.188,-3.83 -0.3676,0.1939 0.7919,-2.642 -0.3111,0.1697 z"
           id="path77"
           style="fill:#d7cdc5;fill-opacity:1" />
        <path
           d="m 414.9,173.5 0.9899,2.221 -0.428,-0.1659 0.8522,1.557 -0.4242,-0.1697 1.867,4.242 -0.8201,-0.1697 1.471,2.545 -2.772,0.7758 h -1.471 l -2.064,-0.8242 1.103,-1.794 -0.6222,0.1939 1.188,-3.83 -0.3676,0.1939 0.7919,-2.642 -0.3111,0.1697 z"
           id="path79"
           style="fill:#d7cdc5;fill-opacity:1" />
        <path
           d="m 399,176.6 1.097,2.431 -0.4744,-0.1816 0.9445,1.704 -0.4702,-0.1857 2.069,4.643 -0.909,-0.1857 1.63,2.786 -3.072,0.8491 h -1.63 l -2.288,-0.9022 1.222,-1.964 -0.6896,0.2123 1.316,-4.192 -0.4075,0.2123 0.8776,-2.892 -0.3448,0.1857 z"
           id="path81"
           style="fill:#d7cdc5;fill-opacity:1" />
        <path
           d="m 409.4,176.2 1.097,2.431 -0.4744,-0.1816 0.9445,1.704 -0.4702,-0.1857 2.069,4.643 -0.909,-0.1857 1.63,2.786 -3.072,0.8491 h -1.63 l -2.288,-0.9022 1.222,-1.964 -0.6896,0.2123 1.316,-4.192 -0.4075,0.2123 0.8776,-2.892 -0.3448,0.1857 z"
           id="path83"
           style="fill:#d7cdc5;fill-opacity:1" />
        <path
           d="m 395.4,179.3 1.097,2.431 -0.4744,-0.1816 0.9445,1.704 -0.4702,-0.1857 2.069,4.643 -0.909,-0.1857 1.63,2.786 -3.072,0.8491 h -1.63 l -2.288,-0.9022 1.222,-1.964 -0.6896,0.2123 1.316,-4.192 -0.4075,0.2123 0.8776,-2.892 -0.3448,0.1857 z"
           id="path85"
           style="fill:#d7cdc5;fill-opacity:1" />
        <path
           d="m 384.82687,182.94693 1.3152,2.13442 -0.56876,-0.15944 1.13237,1.49611 -0.56373,-0.16305 2.48054,4.07656 -1.08981,-0.16305 1.95422,2.44611 -3.68304,0.74551 h -1.95422 l -2.7431,-0.79213 1.46506,-1.72439 -0.82676,0.1864 1.57776,-3.68058 -0.48855,0.1864 1.05216,-2.53918 -0.41339,0.16305 z"
           id="path87"
           style="fill:#d7cdc5;fill-opacity:1;stroke-width:1.02598" />
        <path
           d="m 402.7,178.3 1.097,2.431 -0.4744,-0.1816 0.9445,1.704 -0.4702,-0.1857 2.069,4.643 -0.909,-0.1857 1.63,2.786 -3.072,0.8491 h -1.63 l -2.288,-0.9022 1.222,-1.964 -0.6896,0.2123 1.316,-4.192 -0.4075,0.2123 0.8776,-2.892 -0.3448,0.1857 z"
           id="path89"
           style="fill:#d7cdc5;fill-opacity:1" />
        <path
           d="m 389.1,178.5 1.097,2.431 -0.4744,-0.1816 0.9445,1.704 -0.4702,-0.1857 2.069,4.643 -0.909,-0.1857 1.63,2.786 -3.072,0.8491 h -1.63 l -2.288,-0.9022 1.222,-1.964 -0.6896,0.2123 1.316,-4.192 -0.4075,0.2123 0.8776,-2.892 -0.3448,0.1857 z"
           id="path91"
           style="fill:#d7cdc5;fill-opacity:1" />
        <path
           d="m 382.7,185.1 1.097,2.431 -0.4744,-0.1816 0.9445,1.704 -0.4702,-0.1857 2.069,4.643 -0.909,-0.1857 1.63,2.786 -3.072,0.8491 h -1.63 l -2.288,-0.9022 1.222,-1.964 -0.6896,0.2123 1.316,-4.192 -0.4075,0.2123 0.8776,-2.892 -0.3448,0.1857 z"
           id="path93"
           style="fill:#d7cdc5;fill-opacity:1" />
        <path
           d="m 353,202.2 1.097,2.431 -0.4744,-0.1816 0.9445,1.704 -0.4702,-0.1857 2.069,4.643 -0.909,-0.1857 1.63,2.786 -3.072,0.8491 h -1.63 l -2.288,-0.9022 1.222,-1.964 -0.6896,0.2123 1.316,-4.192 -0.4075,0.2123 0.8776,-2.892 -0.3448,0.1857 z"
           id="path95"
           style="fill:#d7cdc5;fill-opacity:1" />
        <path
           d="m 355.8,198.3 1.097,2.431 -0.4744,-0.1816 0.9445,1.704 -0.4702,-0.1857 2.069,4.643 -0.909,-0.1857 1.63,2.786 -3.072,0.8491 h -1.63 l -2.288,-0.9022 1.222,-1.964 -0.6896,0.2123 1.316,-4.192 -0.4075,0.2123 0.8776,-2.892 -0.3448,0.1857 z"
           id="path97"
           style="fill:#d7cdc5;fill-opacity:1" />
        <path
           d="m 365.51474,193.1 1.42037,2.431 -0.61424,-0.1816 1.22292,1.704 -0.60881,-0.1857 2.67891,4.643 -1.17696,-0.1857 2.11049,2.786 -3.97757,0.8491 h -2.11049 l -2.96246,-0.9022 1.58222,-1.964 -0.89288,0.2123 1.70393,-4.192 -0.52762,0.2123 1.1363,-2.892 -0.44644,0.1857 z"
           id="path99"
           style="fill:#d7cdc5;fill-opacity:1;stroke-width:1.13788" />
        <path
           d="m 359.9176,195.5 0.83802,2.431 -0.3624,-0.1816 0.72153,1.704 -0.3592,-0.1857 1.58056,4.643 -0.69441,-0.1857 1.2452,2.786 -2.34678,0.8491 h -1.2452 l -1.74786,-0.9022 0.93352,-1.964 -0.5268,0.2123 1.00532,-4.192 -0.3113,0.2123 0.67042,-2.892 -0.2634,0.1857 z"
           id="path101"
           style="fill:#d7cdc5;fill-opacity:1;stroke-width:0.874028" />
        <path
           d="m 368.1,193.3 1.097,2.431 -0.4744,-0.1816 0.9445,1.704 -0.4702,-0.1857 2.069,4.643 -0.909,-0.1857 1.63,2.786 -3.072,0.8491 h -1.63 l -2.288,-0.9022 1.222,-1.964 -0.6896,0.2123 1.316,-4.192 -0.4075,0.2123 0.8776,-2.892 -0.3448,0.1857 z"
           id="path103"
           style="fill:#d7cdc5;fill-opacity:1" />
        <path
           d="m 376.4,188.5 1.097,2.431 -0.4744,-0.1816 0.9445,1.704 -0.4702,-0.1857 2.069,4.643 -0.909,-0.1857 1.63,2.786 -3.072,0.8491 h -1.63 l -2.288,-0.9022 1.222,-1.964 -0.6896,0.2123 1.316,-4.192 -0.4075,0.2123 0.8776,-2.892 -0.3448,0.1857 z"
           id="path105"
           style="fill:#d7cdc5;fill-opacity:1" />
        <path
           d="m 380,186.3 1.097,2.431 -0.4744,-0.1816 0.9445,1.704 -0.4702,-0.1857 2.069,4.643 -0.909,-0.1857 1.63,2.786 -3.072,0.8491 h -1.63 l -2.288,-0.9022 1.222,-1.964 -0.6896,0.2123 1.316,-4.192 -0.4075,0.2123 0.8776,-2.892 -0.3448,0.1857 z"
           id="path107"
           style="fill:#d7cdc5;fill-opacity:1" />
        <path
           d="m 343.5,207.1 1.097,2.431 -0.4744,-0.1816 0.9445,1.704 -0.4702,-0.1858 2.069,4.643 -0.909,-0.1857 1.63,2.786 -3.072,0.8491 h -1.63 l -2.288,-0.9022 1.222,-1.964 -0.6896,0.2123 1.316,-4.192 -0.4075,0.2123 0.8776,-2.892 -0.3448,0.1857 z"
           id="path109"
           style="fill:#d7cdc5;fill-opacity:1" />
        <path
           style="fill:#d7cdc5;fill-opacity:1;stroke-width:1.06642"
           id="path105-3"
           d="m 373.19751,188.31794 1.24757,2.431 -0.53951,-0.1816 1.07413,1.704 -0.53474,-0.1857 2.35298,4.643 -1.03376,-0.1857 1.85372,2.786 -3.49364,0.8491 h -1.85372 l -2.60204,-0.9022 1.38973,-1.964 -0.78425,0.2123 1.49662,-4.192 -0.46343,0.2123 0.99805,-2.892 -0.39212,0.1857 z" />
        <path
           d="m 370.52878,191.00525 1.097,2.431 -0.4744,-0.1816 0.9445,1.704 -0.4702,-0.1857 2.069,4.643 -0.909,-0.1857 1.63,2.786 -3.072,0.8491 h -1.63 l -2.288,-0.9022 1.222,-1.964 -0.6896,0.2123 1.316,-4.192 -0.4075,0.2123 0.8776,-2.892 -0.3448,0.1857 z"
           id="path105-3-8"
           style="fill:#d7cdc5;fill-opacity:1;stroke-width:1" />
        <path
           style="fill:#d7cdc5;fill-opacity:1;stroke-width:1"
           id="path99-4"
           d="m 363.34449,193.87544 1.097,2.431 -0.4744,-0.1816 0.9445,1.704 -0.4702,-0.1857 2.069,4.643 -0.909,-0.1857 1.63,2.786 -3.072,0.8491 h -1.63 l -2.288,-0.9022 1.222,-1.964 -0.6896,0.2123 1.316,-4.192 -0.4075,0.2123 0.8776,-2.892 -0.3448,0.1857 z" />
        <path
           d="m 361.22745,197.051 1.097,2.431 -0.4744,-0.1816 0.9445,1.704 -0.4702,-0.1857 2.069,4.643 -0.909,-0.1857 1.63,2.786 -3.072,0.8491 h -1.63 l -2.288,-0.9022 1.222,-1.964 -0.6896,0.2123 1.316,-4.192 -0.4075,0.2123 0.8776,-2.892 -0.3448,0.1857 z"
           id="path99-4-6"
           style="fill:#d7cdc5;fill-opacity:1;stroke-width:1" />
        <path
           style="fill:#d7cdc5;fill-opacity:1;stroke-width:1"
           id="path99-4-6-7"
           d="m 351.17151,204.9899 1.097,2.431 -0.4744,-0.1816 0.9445,1.704 -0.4702,-0.1857 2.069,4.643 -0.909,-0.1857 1.63,2.786 -3.072,0.8491 h -1.63 l -2.288,-0.9022 1.222,-1.964 -0.6896,0.2123 1.316,-4.192 -0.4075,0.2123 0.8776,-2.892 -0.3448,0.1857 z" />
        <path
           style="fill:#d7cdc5;fill-opacity:1;stroke-width:1"
           id="path105-6"
           d="m 378.29344,190.3816 1.097,2.431 -0.4744,-0.1816 0.9445,1.704 -0.4702,-0.1857 2.069,4.643 -0.909,-0.1857 1.63,2.786 -3.072,0.8491 h -1.63 l -2.288,-0.9022 1.222,-1.964 -0.6896,0.2123 1.316,-4.192 -0.4075,0.2123 0.8776,-2.892 -0.3448,0.1857 z" />
        <path
           style="fill:#d7cdc5;fill-opacity:1;stroke-width:0.861865"
           id="path91-9"
           d="m 392.36286,175.28879 0.80189,2.47033 -0.34678,-0.18454 0.69041,1.73157 -0.3437,-0.1887 1.5124,4.71811 -0.66446,-0.1887 1.1915,2.83107 -2.24558,0.86284 h -1.19151 l -1.67249,-0.9168 0.89326,-1.99577 -0.50408,0.21573 0.96197,-4.25982 -0.29787,0.21574 0.64151,-2.93879 -0.25205,0.1887 z" />
        <path
           style="fill:#d7cdc5;fill-opacity:1;stroke-width:0.874027"
           id="path101-5"
           d="m 358.25627,196.66088 0.83802,2.431 -0.3624,-0.1816 0.72153,1.704 -0.3592,-0.1857 1.58056,4.643 -0.69441,-0.1857 1.2452,2.786 -2.34678,0.8491 h -1.2452 l -1.74786,-0.9022 0.93352,-1.964 -0.5268,0.2123 1.00532,-4.192 -0.3113,0.2123 0.67042,-2.892 -0.2634,0.1857 z" />
        <path
           style="fill:#d7cdc5;fill-opacity:1;stroke-width:1.23006"
           id="path83-7"
           d="m 406.69109,174.74989 1.65979,2.431 -0.71778,-0.1816 1.42906,1.704 -0.71144,-0.1857 3.1305,4.643 -1.37537,-0.1857 2.46626,2.786 -4.64805,0.8491 h -2.46625 l -3.46184,-0.9022 1.84894,-1.964 -1.0434,0.2123 1.99116,-4.192 -0.61656,0.2123 1.32784,-2.892 -0.52169,0.1857 z" />
        <path
           style="fill:#d7cdc5;fill-opacity:1;stroke-width:0.85176"
           id="path81-0"
           d="m 400.9964,179.69074 0.79587,2.431 -0.34418,-0.1816 0.68523,1.704 -0.34112,-0.1857 1.50105,4.643 -0.65948,-0.1857 1.18256,2.786 -2.22872,0.8491 h -1.18256 l -1.65993,-0.9022 0.88655,-1.964 -0.5003,0.2123 0.95475,-4.192 -0.29563,0.2123 0.63669,-2.892 -0.25015,0.1857 z" />
        <path
           d="m 396.8407,180.10487 0.79587,2.431 -0.34418,-0.1816 0.68523,1.704 -0.34112,-0.1857 1.50105,4.643 -0.65948,-0.1857 1.18256,2.786 -2.22872,0.8491 h -1.18256 l -1.65993,-0.9022 0.88655,-1.964 -0.5003,0.2123 0.95475,-4.192 -0.29563,0.2123 0.63669,-2.892 -0.25015,0.1857 z"
           id="path81-0-5"
           style="fill:#d7cdc5;fill-opacity:1;stroke-width:0.851761" />
        <path
           style="fill:#d7cdc5;fill-opacity:1;stroke-width:0.779061"
           id="path83-73"
           d="m 411.297,177.15793 0.6658,2.431 -0.28792,-0.1816 0.57325,1.704 -0.28539,-0.1857 1.25576,4.643 -0.55171,-0.1857 0.98931,2.786 -1.86451,0.8491 h -0.98931 l -1.38867,-0.9022 0.74168,-1.964 -0.41855,0.2123 0.79873,-4.192 -0.24732,0.2123 0.53265,-2.892 -0.20928,0.1857 z" />
        <path
           style="fill:#d7cdc5;fill-opacity:1;stroke-width:0.835913"
           id="path73-7"
           d="m 425.91012,175.36932 0.69169,2.221 -0.29906,-0.1659 0.59547,1.557 -0.29641,-0.1697 1.30457,4.242 -0.57304,-0.1697 1.02786,2.545 -1.93694,0.7758 h -1.02786 l -1.44222,-0.8242 0.77072,-1.794 -0.43476,0.1939 0.83011,-3.83 -0.25686,0.1939 0.55334,-2.642 -0.21738,0.1697 z" />
        <path
           d="m 422.2279,174.84006 0.69169,2.221 -0.29906,-0.1659 0.59547,1.557 -0.29641,-0.1697 1.30457,4.242 -0.57304,-0.1697 1.02786,2.545 -1.93694,0.7758 h -1.02786 l -1.44222,-0.8242 0.77072,-1.794 -0.43476,0.1939 0.83011,-3.83 -0.25686,0.1939 0.55334,-2.642 -0.21738,0.1697 z"
           id="path73-7-0"
           style="fill:#d7cdc5;fill-opacity:1;stroke-width:0.835912" />
        <path
           style="fill:#d7cdc5;fill-opacity:1;stroke-width:0.835912"
           id="path73-7-0-4"
           d="m 419.5816,174.3108 0.69169,2.221 -0.29906,-0.1659 0.59547,1.557 -0.29641,-0.1697 1.30457,4.242 -0.57304,-0.1697 1.02786,2.545 -1.93694,0.7758 h -1.02786 l -1.44222,-0.8242 0.77072,-1.794 -0.43476,0.1939 0.83011,-3.83 -0.25686,0.1939 0.55334,-2.642 -0.21738,0.1697 z" />
        <path
           d="m 416.65376,175.67632 0.69169,2.221 -0.29906,-0.1659 0.59547,1.557 -0.29641,-0.1697 1.30457,4.242 -0.57304,-0.1697 1.02786,2.545 -1.93694,0.7758 h -1.02786 l -1.44222,-0.8242 0.77072,-1.794 -0.43476,0.1939 0.83011,-3.83 -0.25686,0.1939 0.55334,-2.642 -0.21738,0.1697 z"
           id="path73-7-0-4-3"
           style="fill:#d7cdc5;fill-opacity:1;stroke-width:0.835912" />
        <path
           style="fill:#d7cdc5;fill-opacity:1;stroke-width:0.930665"
           id="path69-3"
           d="m 432.50607,176.5526 0.85739,2.221 -0.3707,-0.1659 0.73812,1.557 -0.36742,-0.1697 1.61708,4.242 -0.71032,-0.1697 1.27409,2.545 -2.40093,0.7758 h -1.27409 l -1.78771,-0.8242 0.95535,-1.794 -0.53891,0.1939 1.02897,-3.83 -0.31839,0.1939 0.68589,-2.642 -0.26945,0.1697 z" />
        <path
           style="fill:#d7cdc5;fill-opacity:1;stroke-width:0.892244"
           id="path63-2"
           d="m 437.29088,180.11992 0.78806,2.221 -0.34073,-0.1659 0.67843,1.557 -0.3377,-0.1697 1.48632,4.242 -0.65288,-0.1697 1.17106,2.545 -2.20679,0.7758 h -1.17106 l -1.64315,-0.8242 0.8781,-1.794 -0.49534,0.1939 0.94577,-3.83 -0.29265,0.1939 0.63043,-2.642 -0.24766,0.1697 z" />
        <path
           d="m 435.47146,179.72343 0.78806,2.221 -0.34073,-0.1659 0.67843,1.557 -0.3377,-0.1697 1.48632,4.242 -0.65288,-0.1697 1.17106,2.545 -2.20679,0.7758 h -1.17106 l -1.64315,-0.8242 0.8781,-1.794 -0.49534,0.1939 0.94577,-3.83 -0.29265,0.1939 0.63043,-2.642 -0.24766,0.1697 z"
           id="path63-2-9"
           style="fill:#d7cdc5;fill-opacity:1;stroke-width:0.892244" />
        <path
           style="fill:#d7cdc5;fill-opacity:1;stroke-width:0.892244"
           id="path63-2-9-1"
           d="m 453.63125,184.36527 0.78806,2.221 -0.34073,-0.1659 0.67842,1.557 -0.33769,-0.1697 1.48632,4.242 -0.65288,-0.1697 1.17106,2.545 -2.2068,0.7758 h -1.17105 l -1.64315,-0.8242 0.8781,-1.794 -0.49534,0.1939 0.94577,-3.83 -0.29265,0.1939 0.63043,-2.642 -0.24766,0.1697 z" />
        <path
           d="m 449.92643,185.42379 0.78806,2.221 -0.34073,-0.1659 0.67842,1.557 -0.33769,-0.1697 1.48632,4.242 -0.65288,-0.1697 1.17106,2.545 -2.2068,0.7758 h -1.17105 l -1.64315,-0.8242 0.8781,-1.794 -0.49534,0.1939 0.94577,-3.83 -0.29265,0.1939 0.63043,-2.642 -0.24766,0.1697 z"
           id="path63-2-9-1-1"
           style="fill:#d7cdc5;fill-opacity:1;stroke-width:0.892244" />
      </g>
      <path
         d="m 312,230.7 c 0,0 64.49,-41.17 85.33,-47.13 20.84,-5.953 20.84,-5.953 28.77,-2.976 7.937,2.976 18.85,5.457 20.84,9.922 1.984,4.465 16.37,-12.4 18.35,-18.35 1.984,-5.953 15.38,-26.29 21.33,-29.27 5.953,-2.976 35.22,-25.8 35.22,-25.8 l 6.449,124 -217.8,2.976 z"
         fill="#d7cdc5"
         id="path113" />
      <path
         style="fill:url(#linearGradient4157)"
         d="m 418.6,179 9.328,8.803 c 0,0 -0.421,6.947 -8.42,10.74 -7.999,3.789 -9.894,3.158 -16.63,8.631 -6.736,5.473 -15.37,4 -20,8.631 -4.631,4.631 -3.579,23.58 -3.579,23.58 l 66.73,-2.947 c 0,0 18.74,-31.16 7.999,-36.84 -10.741,-5.68 -18.74,-15.87 -18.74,-15.87 0,0 -4.361,-1.484 -8.371,-2.836 -1.368,-0.4612 -2.83,-1.05 -3.969,-1.419 -1.835,-0.5935 -3.061,-0.8436 -3.428,-0.7824 -1.263,0.2105 -0.9191,0.3181 -0.9191,0.3181 z"
         fill="url(#linearGradient4157)"
         id="path153" />
      <path
         style="fill:#d7cdc5;fill-opacity:1;stroke-width:0.403119"
         d="m 510.36416,115.86321 0.94681,4.20816 -0.53401,-0.63128 0.77702,3.7454 -0.46141,-0.42082 1.16522,4.58692 -0.36421,-0.42081 0.97112,3.57741 -0.75271,-0.37877 1.40822,3.57742 -2.88905,1.4728 -1.31102,-0.0421 -2.42764,-2.06235 1.45683,-2.98786 -0.53401,0.2104 0.94681,-3.49288 -0.3885,0.21041 1.04402,-3.95564 -0.43711,0.25251 0.87391,-3.8294 -0.43711,0.37877 z"
         id="path173-1" />
      <path
         id="path173-1-5"
         d="m 506.28589,119.23016 0.94681,4.20816 -0.53401,-0.63128 0.77703,3.7454 -0.46142,-0.42082 1.16523,4.58692 -0.36421,-0.42081 0.97111,3.57741 -0.75271,-0.37877 1.40822,3.57742 -2.88905,1.4728 -1.31102,-0.0421 -2.42763,-2.06235 1.45682,-2.98786 -0.534,0.2104 0.9468,-3.49288 -0.3885,0.21041 1.04402,-3.95564 -0.43711,0.25251 0.87391,-3.8294 -0.43711,0.37877 z"
         style="fill:#d7cdc5;fill-opacity:1;stroke-width:0.403118" />
      <path
         style="fill:#d7cdc5;fill-opacity:1;stroke-width:0.403118"
         d="m 505.03095,122.76969 0.94681,4.20816 -0.53401,-0.63128 0.77703,3.7454 -0.46142,-0.42082 1.16523,4.58692 -0.36421,-0.42081 0.97111,3.57741 -0.75271,-0.37877 1.40822,3.57742 -2.88905,1.4728 -1.31102,-0.0421 -2.42763,-2.06235 1.45682,-2.98786 -0.534,0.2104 0.9468,-3.49288 -0.3885,0.21041 1.04402,-3.95564 -0.43711,0.25251 0.87391,-3.8294 -0.43711,0.37877 z"
         id="path173-1-5-2" />
      <path
         id="path173-1-5-2-3"
         d="m 484.98718,133.19708 0.94681,4.20816 -0.53401,-0.63128 0.77703,3.7454 -0.46142,-0.42082 1.16523,4.58692 -0.36421,-0.42081 0.97111,3.57741 -0.75271,-0.37877 1.40822,3.57742 -2.88905,1.4728 -1.31102,-0.0421 -2.42763,-2.06235 1.45682,-2.98786 -0.534,0.2104 0.9468,-3.49288 -0.3885,0.21041 1.04402,-3.95564 -0.43711,0.25251 0.87391,-3.8294 -0.43711,0.37877 z"
         style="fill:#d7cdc5;fill-opacity:1;stroke-width:0.403118" />
      <path
         style="fill:#d7cdc5;fill-opacity:1;stroke-width:0.403118"
         d="m 490.03655,133.40754 0.94681,4.20816 -0.53401,-0.63128 0.77703,3.7454 -0.46142,-0.42082 1.16523,4.58692 -0.36421,-0.42081 0.97111,3.57741 -0.75271,-0.37877 1.40822,3.57742 -2.88905,1.4728 -1.31102,-0.0421 -2.42763,-2.06235 1.45682,-2.98786 -0.534,0.2104 0.9468,-3.49288 -0.3885,0.21041 1.04402,-3.95564 -0.43711,0.25251 0.87391,-3.8294 -0.43711,0.37877 z"
         id="path173-1-5-2-3-2" />
      <path
         id="path173-1-5-2-3-2-0"
         d="m 498.21564,124.55033 0.94681,4.20816 -0.53401,-0.63128 0.77703,3.7454 -0.46142,-0.42082 1.16523,4.58692 -0.36421,-0.42081 0.97111,3.57741 -0.75271,-0.37877 1.40822,3.57742 -2.88905,1.4728 -1.31102,-0.0421 -2.42763,-2.06235 1.45682,-2.98786 -0.534,0.2104 0.9468,-3.49288 -0.3885,0.21041 1.04402,-3.95564 -0.43711,0.25251 0.87391,-3.8294 -0.43711,0.37877 z"
         style="fill:#d7cdc5;fill-opacity:1;stroke-width:0.403118" />
    </g>
    <g
       inkscape:groupmode="layer"
       id="layer10"
       inkscape:label="Clouds"
       style="display:inline">
      <path
         style="display:inline;fill:url(#radialGradient1149-2-0);stroke-width:1.21854"
         id="path115-8"
         fill="url(#radialGradient1149-2)"
         d="m 34.507406,-81.221265 a 30.290731,29.718975 0 0 1 28.511003,19.690869 29.041386,25.72537 0 0 1 15.051076,-3.724006 29.041386,25.72537 0 0 1 29.041365,25.72537 29.041386,25.72537 0 0 1 -27.438432,25.68758 53.521483,45.239864 0 0 1 46.296482,41.006894 25.729442,26.607238 0 0 1 20.35491,-13.794946 39.000791,19.955429 0 0 1 0,-0.0076 39.000791,19.955429 0 0 1 35.38239,-19.8672424 12.033789,12.417971 0 0 1 -0.52743,-3.6345586 12.033789,12.417971 0 0 1 12.03378,-12.417971 12.033789,12.417971 0 0 1 6.56731,2.011921 30.290731,29.718975 0 0 1 29.11211,-21.5302 30.290731,29.718975 0 0 1 28.511,19.690873 29.041386,25.72537 0 0 1 15.05108,-3.723993 29.041386,25.72537 0 0 1 29.04138,25.72536977 29.041386,25.72537 0 0 1 -29.04138,25.72536923 29.041386,25.72537 0 0 1 -5.29322,-0.431611 25.305136,14.185488 0 0 1 -24.99869,11.961919 25.305136,14.185488 0 0 1 -18.88162,-4.738155 29.878212,26.607238 0 0 1 1.61708,8.634755 29.878212,26.607238 0 0 1 -11.98665,21.316027 54.358307,19.514494 0 0 1 16.97224,14.160292 A 54.358307,19.514494 0 0 1 175.5249,95.760227 54.358307,19.514494 0 0 1 135.13332,89.306208 90.860405,11.531063 0 0 1 95.861454,90.439031 90.860405,11.531063 0 0 1 37.154014,87.709018 33.602675,21.29083 0 0 1 4.5885312,103.74643 33.602675,21.29083 0 0 1 -29.014144,82.4556 33.602675,21.29083 0 0 1 -24.211236,71.490193 44.917498,45.340649 0 0 1 -39.356613,59.28261 a 43.137774,29.718975 0 0 1 -39.92012,-29.643387 43.137774,29.718975 0 0 1 41.947371,-29.70637724 44.917498,45.340649 0 0 1 9.912271,-8.09177516 39.000791,19.955429 0 0 1 -20.649581,-17.6121776 39.000791,19.955429 0 0 1 35.382415,-19.867247 12.033789,12.417971 0 0 1 -0.527448,-3.634559 12.033789,12.417971 0 0 1 12.0338003,-12.417971 12.033789,12.417971 0 0 1 6.5673134,2.01192 30.290731,29.718975 0 0 1 29.1121043,-21.530194 z M 169.81386,54.964465 a 25.729442,26.607238 0 0 1 -1.42733,1.948929 54.358307,19.514494 0 0 1 2.85347,-0.109351 29.878212,26.607238 0 0 1 -1.42614,-1.839326 z M 30.735797,59.096649 a 20.743847,21.731764 0 0 1 0.0317,0.523452 19.081982,6.2083555 0 0 1 0.43126,-0.03578 53.521483,45.239864 0 0 1 -0.462965,-0.487548 z M 135.09148,62.51704 a 17.844423,12.862685 0 0 1 0.28747,0.612647 54.358307,19.514494 0 0 1 0.43303,-0.168563 25.729442,26.607238 0 0 1 -0.7205,-0.443958 z" />
      <path
         style="display:inline;fill:url(#radialGradient1149-2-4);stroke-width:1"
         id="path115-9"
         fill="url(#radialGradient1149-2)"
         d="m 280.86682,22.463576 a 25.7,23.59 0 0 0 -24.19,15.63 24.64,20.42 0 0 0 -12.77,-2.956 24.64,20.42 0 0 0 -24.63999,20.42 24.64,20.42 0 0 0 23.27999,20.39 45.41,35.91 0 0 0 -39.28,32.550004 21.83,21.12 0 0 0 -17.27,-10.950005 33.090001,15.84 0 0 0 0,-0.006 33.090001,15.84 0 0 0 -30.01999,-15.769999 10.21,9.8569999 0 0 0 0.44749,-2.885 10.21,9.8569999 0 0 0 -10.21,-9.857 10.21,9.8569999 0 0 0 -5.572,1.597 25.7,23.59 0 0 0 -24.7,-17.09 25.7,23.59 0 0 0 -24.189989,15.63 24.64,20.42 0 0 0 -12.770006,-2.956 24.64,20.42 0 0 0 -24.639999,20.42 24.64,20.42 0 0 0 24.639999,20.420004 24.64,20.42 0 0 0 4.490999,-0.3426 21.47,11.26 0 0 0 21.209996,9.49501 21.47,11.26 0 0 0 16.02001,-3.76101 25.35,21.12 0 0 0 -1.37201,6.854 25.35,21.12 0 0 0 10.17,16.92001 46.119999,15.49 0 0 0 -14.39999,11.24 46.119999,15.49 0 0 0 46.11999,15.49 46.119999,15.49 0 0 0 34.27,-5.123 77.089998,9.1529998 0 0 0 33.32,0.8992 77.089998,9.1529998 0 0 0 49.81,-2.167 28.51,16.9 0 0 0 27.63,12.73 28.51,16.9 0 0 0 28.51,-16.9 28.51,16.9 0 0 0 -4.075,-8.704 38.109998,35.99 0 0 0 12.85001,-9.69 36.600001,23.59 0 0 0 33.87,-23.53 36.600001,23.59 0 0 0 -35.59001,-23.580004 38.109998,35.99 0 0 0 -8.41001,-6.423 33.090001,15.84 0 0 0 17.52002,-13.98 33.090001,15.84 0 0 0 -30.02001,-15.77 10.21,9.8569999 0 0 0 0.44751,-2.885 10.21,9.8569999 0 0 0 -10.21001,-9.857 10.21,9.8569999 0 0 0 -5.572,1.597 25.7,23.59 0 0 0 -24.7,-17.09 z m -114.8,108.100004 a 21.83,21.12 0 0 0 1.21101,1.547 46.119999,15.49 0 0 0 -2.42101,-0.0868 25.35,21.12 0 0 0 1.21,-1.46 z m 118,3.28 a 17.6,17.25 0 0 0 -0.0269,0.4155 16.19,4.9279999 0 0 0 -0.3659,-0.0284 45.41,35.91 0 0 0 0.3928,-0.387 z m -88.54,2.715 a 15.14,10.21 0 0 0 -0.2439,0.4863 46.119999,15.49 0 0 0 -0.3674,-0.1338 21.83,21.12 0 0 0 0.6113,-0.3524 z" />
      <path
         d="m 453.77198,-3.3382049 a 25.7,23.59 0 0 0 -24.19,15.6300009 24.64,20.42 0 0 0 -12.77,-2.9560002 24.64,20.42 0 0 0 -24.63999,20.4199992 24.64,20.42 0 0 0 23.27999,20.390002 45.41,35.91 0 0 0 -39.28,32.550003 21.83,21.12 0 0 0 -17.27,-10.950007 33.090001,15.84 0 0 0 0,-0.006 33.090001,15.84 0 0 0 -30.01999,-15.769999 10.21,9.8569999 0 0 0 0.44749,-2.885 10.21,9.8569999 0 0 0 -10.21,-9.856999 10.21,9.8569999 0 0 0 -5.572,1.597 25.7,23.59 0 0 0 -24.7,-17.090001 25.7,23.59 0 0 0 -24.18999,15.63 24.64,20.42 0 0 0 -12.77,-2.955993 24.64,20.42 0 0 0 -24.64,20.42 24.64,20.42 0 0 0 24.64,20.420005 24.64,20.42 0 0 0 4.491,-0.3426 21.47,11.26 0 0 0 21.20999,9.495009 21.47,11.26 0 0 0 16.02001,-3.761009 25.35,21.12 0 0 0 -1.37201,6.854 25.35,21.12 0 0 0 10.17,16.920014 46.119999,15.49 0 0 0 -14.39999,11.24 46.119999,15.49 0 0 0 46.11999,15.49 46.119999,15.49 0 0 0 34.27,-5.123 77.089998,9.1529996 0 0 0 33.32,0.8992 77.089998,9.1529996 0 0 0 49.81,-2.167 28.51,16.9 0 0 0 27.63,12.73 28.51,16.9 0 0 0 28.51,-16.9 28.51,16.9 0 0 0 -4.075,-8.704 38.109998,35.99 0 0 0 12.85001,-9.69 36.600001,23.59 0 0 0 33.87,-23.530003 36.600001,23.59 0 0 0 -35.59001,-23.580004 38.109998,35.99 0 0 0 -8.41001,-6.423 33.090001,15.84 0 0 0 17.52002,-13.98 33.090001,15.84 0 0 0 -30.02001,-15.770002 10.21,9.8569999 0 0 0 0.44751,-2.884998 10.21,9.8569999 0 0 0 -10.21001,-9.857 10.21,9.8569999 0 0 0 -5.572,1.597 25.7,23.59 0 0 0 -24.7,-17.0900009 z m -114.8,108.1000049 a 21.83,21.12 0 0 0 1.21101,1.547 46.119999,15.49 0 0 0 -2.42101,-0.0868 25.35,21.12 0 0 0 1.21,-1.46 z m 118,3.28 a 17.6,17.25 0 0 0 -0.0269,0.4155 16.19,4.9279999 0 0 0 -0.3659,-0.0284 45.41,35.91 0 0 0 0.3928,-0.387 z m -88.54,2.715 a 15.14,10.21 0 0 0 -0.2439,0.4863 46.119999,15.49 0 0 0 -0.3674,-0.1338 21.83,21.12 0 0 0 0.6113,-0.3524 z"
         fill="url(#radialGradient1149-2)"
         id="path115-9-4"
         style="display:inline;fill:url(#radialGradient1149-2-4-1);stroke-width:1" />
    </g>
  </g>
</svg>
